<svg xmlns="http://www.w3.org/2000/svg" width="1400" height="920" viewBox="0 0 1400 920" font-family="monospace, Consolas, sans-serif">
  <defs>
    <marker id="arr" markerWidth="8" markerHeight="6" refX="8" refY="3" orient="auto">
      <polygon points="0 0, 8 3, 0 6" fill="#555"/>
    </marker>
  </defs>
  <rect width="1400" height="920" fill="#fafafa"/>
  <text x="700" y="34" font-size="18" text-anchor="middle" fill="#111" font-weight="bold" >Arduino Pro Micro – DMX Relay Wiring Diagram</text>
  <text x="700" y="54" font-size="11" text-anchor="middle" fill="#555"  >8-channel relay controller with I²C LCD, 4 buttons, and DMX512 input via MAX485</text>
  <rect x="560" y="100" width="160" height="520" rx="6" fill="#e8f0fe" stroke="#3367d6" stroke-width="1.5" />
  <text x="640" y="116" font-size="11" text-anchor="middle" fill="#3367d6" font-weight="bold" >Arduino</text>
  <text x="640" y="130" font-size="11" text-anchor="middle" fill="#3367d6" font-weight="bold" >Pro Micro</text>
  <text x="640" y="143" font-size="9" text-anchor="middle" fill="#5a84e3"  >(ATmega32U4)</text>
  <rect x="622" y="88" width="36" height="14" rx="3" fill="#cdd8f6" stroke="#3367d6" stroke-width="1.5" />
  <text x="640" y="97" font-size="8" text-anchor="middle" fill="#3367d6"  >USB</text>
  <circle cx="552" cy="170" r="4" fill="#e67e22" stroke="#e67e22" stroke-width="1.5"/>
  <text x="490" y="173" font-size="9" text-anchor="start" fill="#333">TX (D1)</text>
  <line x1="552" y1="170" x2="560" y2="170" stroke="#e67e22" stroke-width="1.5" />
  <circle cx="552" cy="198" r="4" fill="#27ae60" stroke="#27ae60" stroke-width="1.5"/>
  <text x="490" y="201" font-size="9" text-anchor="start" fill="#333">RX (D0)</text>
  <line x1="552" y1="198" x2="560" y2="198" stroke="#27ae60" stroke-width="1.5" />
  <circle cx="552" cy="226" r="4" fill="#2c3e50" stroke="#2c3e50" stroke-width="1.5"/>
  <text x="490" y="229" font-size="9" text-anchor="start" fill="#333">GND</text>
  <line x1="552" y1="226" x2="560" y2="226" stroke="#2c3e50" stroke-width="1.5" />
  <circle cx="552" cy="254" r="4" fill="#2c3e50" stroke="#2c3e50" stroke-width="1.5"/>
  <text x="490" y="257" font-size="9" text-anchor="start" fill="#333">GND</text>
  <line x1="552" y1="254" x2="560" y2="254" stroke="#2c3e50" stroke-width="1.5" />
  <circle cx="552" cy="282" r="4" fill="#8e44ad" stroke="#8e44ad" stroke-width="1.5"/>
  <text x="490" y="285" font-size="9" text-anchor="start" fill="#333">D2 / SDA</text>
  <line x1="552" y1="282" x2="560" y2="282" stroke="#8e44ad" stroke-width="1.5" />
  <circle cx="552" cy="310" r="4" fill="#8e44ad" stroke="#8e44ad" stroke-width="1.5"/>
  <text x="490" y="313" font-size="9" text-anchor="start" fill="#333">D3 / SCL</text>
  <line x1="552" y1="310" x2="560" y2="310" stroke="#8e44ad" stroke-width="1.5" />
  <circle cx="552" cy="338" r="4" fill="#c0392b" stroke="#c0392b" stroke-width="1.5"/>
  <text x="490" y="341" font-size="9" text-anchor="start" fill="#333">D4</text>
  <line x1="552" y1="338" x2="560" y2="338" stroke="#c0392b" stroke-width="1.5" />
  <circle cx="552" cy="366" r="4" fill="#c0392b" stroke="#c0392b" stroke-width="1.5"/>
  <text x="490" y="369" font-size="9" text-anchor="start" fill="#333">D5</text>
  <line x1="552" y1="366" x2="560" y2="366" stroke="#c0392b" stroke-width="1.5" />
  <circle cx="552" cy="394" r="4" fill="#c0392b" stroke="#c0392b" stroke-width="1.5"/>
  <text x="490" y="397" font-size="9" text-anchor="start" fill="#333">D6</text>
  <line x1="552" y1="394" x2="560" y2="394" stroke="#c0392b" stroke-width="1.5" />
  <circle cx="552" cy="422" r="4" fill="#c0392b" stroke="#c0392b" stroke-width="1.5"/>
  <text x="490" y="425" font-size="9" text-anchor="start" fill="#333">D7</text>
  <line x1="552" y1="422" x2="560" y2="422" stroke="#c0392b" stroke-width="1.5" />
  <circle cx="552" cy="450" r="4" fill="#c0392b" stroke="#c0392b" stroke-width="1.5"/>
  <text x="490" y="453" font-size="9" text-anchor="start" fill="#333">D8</text>
  <line x1="552" y1="450" x2="560" y2="450" stroke="#c0392b" stroke-width="1.5" />
  <circle cx="552" cy="478" r="4" fill="#c0392b" stroke="#c0392b" stroke-width="1.5"/>
  <text x="490" y="481" font-size="9" text-anchor="start" fill="#333">D9</text>
  <line x1="552" y1="478" x2="560" y2="478" stroke="#c0392b" stroke-width="1.5" />
  <circle cx="552" cy="506" r="4" fill="#c0392b" stroke="#c0392b" stroke-width="1.5"/>
  <text x="490" y="509" font-size="9" text-anchor="start" fill="#333">D10</text>
  <line x1="552" y1="506" x2="560" y2="506" stroke="#c0392b" stroke-width="1.5" />
  <circle cx="552" cy="534" r="4" fill="#c0392b" stroke="#c0392b" stroke-width="1.5"/>
  <text x="490" y="537" font-size="9" text-anchor="start" fill="#333">D16</text>
  <line x1="552" y1="534" x2="560" y2="534" stroke="#c0392b" stroke-width="1.5" />
  <circle cx="728" cy="170" r="4" fill="#e74c3c" stroke="#e74c3c" stroke-width="1.5"/>
  <text x="736" y="173" font-size="9" text-anchor="start" fill="#333">RAW</text>
  <line x1="720" y1="170" x2="728" y2="170" stroke="#e74c3c" stroke-width="1.5" />
  <circle cx="728" cy="198" r="4" fill="#2c3e50" stroke="#2c3e50" stroke-width="1.5"/>
  <text x="736" y="201" font-size="9" text-anchor="start" fill="#333">GND</text>
  <line x1="720" y1="198" x2="728" y2="198" stroke="#2c3e50" stroke-width="1.5" />
  <circle cx="728" cy="226" r="4" fill="#7f8c8d" stroke="#7f8c8d" stroke-width="1.5"/>
  <text x="736" y="229" font-size="9" text-anchor="start" fill="#333">RST</text>
  <line x1="720" y1="226" x2="728" y2="226" stroke="#7f8c8d" stroke-width="1.5" />
  <circle cx="728" cy="254" r="4" fill="#e74c3c" stroke="#e74c3c" stroke-width="1.5"/>
  <text x="736" y="257" font-size="9" text-anchor="start" fill="#333">VCC</text>
  <line x1="720" y1="254" x2="728" y2="254" stroke="#e74c3c" stroke-width="1.5" />
  <circle cx="728" cy="282" r="4" fill="#f39c12" stroke="#f39c12" stroke-width="1.5"/>
  <text x="736" y="285" font-size="9" text-anchor="start" fill="#333">A3</text>
  <line x1="720" y1="282" x2="728" y2="282" stroke="#f39c12" stroke-width="1.5" />
  <circle cx="728" cy="310" r="4" fill="#f39c12" stroke="#f39c12" stroke-width="1.5"/>
  <text x="736" y="313" font-size="9" text-anchor="start" fill="#333">A2</text>
  <line x1="720" y1="310" x2="728" y2="310" stroke="#f39c12" stroke-width="1.5" />
  <circle cx="728" cy="338" r="4" fill="#f39c12" stroke="#f39c12" stroke-width="1.5"/>
  <text x="736" y="341" font-size="9" text-anchor="start" fill="#333">A1</text>
  <line x1="720" y1="338" x2="728" y2="338" stroke="#f39c12" stroke-width="1.5" />
  <circle cx="728" cy="366" r="4" fill="#f39c12" stroke="#f39c12" stroke-width="1.5"/>
  <text x="736" y="369" font-size="9" text-anchor="start" fill="#333">A0</text>
  <line x1="720" y1="366" x2="728" y2="366" stroke="#f39c12" stroke-width="1.5" />
  <circle cx="728" cy="394" r="4" fill="#7f8c8d" stroke="#7f8c8d" stroke-width="1.5"/>
  <text x="736" y="397" font-size="9" text-anchor="start" fill="#333">SCK/15</text>
  <line x1="720" y1="394" x2="728" y2="394" stroke="#7f8c8d" stroke-width="1.5" />
  <circle cx="728" cy="422" r="4" fill="#7f8c8d" stroke="#7f8c8d" stroke-width="1.5"/>
  <text x="736" y="425" font-size="9" text-anchor="start" fill="#333">MISO/14</text>
  <line x1="720" y1="422" x2="728" y2="422" stroke="#7f8c8d" stroke-width="1.5" />
  <circle cx="728" cy="450" r="4" fill="#c0392b" stroke="#c0392b" stroke-width="1.5"/>
  <text x="736" y="453" font-size="9" text-anchor="start" fill="#333">MOSI/16</text>
  <line x1="720" y1="450" x2="728" y2="450" stroke="#c0392b" stroke-width="1.5" />
  <rect x="60" y="120" width="200" height="100" rx="6" fill="#e8f5e9" stroke="#2e7d32" stroke-width="1.5" />
  <text x="160" y="138" font-size="11" text-anchor="middle" fill="#2e7d32" font-weight="bold" >16×2 I²C LCD</text>
  <text x="160" y="153" font-size="9" text-anchor="middle" fill="#388e3c"  >Addr: 0x27</text>
  <rect x="70" y="162" width="180" height="44" rx="2" fill="#b2dfdb" stroke="#4db6ac" stroke-width="1.5" />
  <text x="160" y="180" font-size="8" text-anchor="middle" fill="#00695c"  >Addr:001 DMX</text>
  <text x="160" y="194" font-size="8" text-anchor="middle" fill="#00695c"  >----1234----</text>
  <circle cx="70" cy="220" r="4" fill="#2c3e50" stroke="#2c3e50" stroke-width="1.5"/>
  <text x="70" y="233" font-size="8" text-anchor="middle" fill="#2c3e50"  >GND</text>
  <circle cx="130" cy="220" r="4" fill="#e74c3c" stroke="#e74c3c" stroke-width="1.5"/>
  <text x="130" y="233" font-size="8" text-anchor="middle" fill="#e74c3c"  >VCC</text>
  <circle cx="190" cy="220" r="4" fill="#8e44ad" stroke="#8e44ad" stroke-width="1.5"/>
  <text x="190" y="233" font-size="8" text-anchor="middle" fill="#8e44ad"  >SDA</text>
  <circle cx="250" cy="220" r="4" fill="#8e44ad" stroke="#8e44ad" stroke-width="1.5"/>
  <text x="250" y="233" font-size="8" text-anchor="middle" fill="#8e44ad"  >SCL</text>
  <rect x="60" y="380" width="160" height="130" rx="6" fill="#fff9c4" stroke="#f57f17" stroke-width="1.5" />
  <text x="140" y="396" font-size="11" text-anchor="middle" fill="#e65100" font-weight="bold" >MAX485</text>
  <text x="140" y="409" font-size="8" text-anchor="middle" fill="#bf360c"  >RS-485 Transceiver</text>
  <circle cx="52" cy="428" r="4" fill="#27ae60" stroke="#27ae60" stroke-width="1.5"/>
  <text x="-10" y="431" font-size="9" text-anchor="start" fill="#333">RO  →RX</text>
  <line x1="52" y1="428" x2="60" y2="428" stroke="#27ae60" stroke-width="1.5" />
  <circle cx="52" cy="452" r="4" fill="#2c3e50" stroke="#2c3e50" stroke-width="1.5"/>
  <text x="-10" y="455" font-size="9" text-anchor="start" fill="#333">RE  →GND</text>
  <line x1="52" y1="452" x2="60" y2="452" stroke="#2c3e50" stroke-width="1.5" />
  <circle cx="52" cy="476" r="4" fill="#2c3e50" stroke="#2c3e50" stroke-width="1.5"/>
  <text x="-10" y="479" font-size="9" text-anchor="start" fill="#333">DE  →GND</text>
  <line x1="52" y1="476" x2="60" y2="476" stroke="#2c3e50" stroke-width="1.5" />
  <circle cx="52" cy="500" r="4" fill="#7f8c8d" stroke="#7f8c8d" stroke-width="1.5"/>
  <text x="-10" y="503" font-size="9" text-anchor="start" fill="#333">DI  (nc)</text>
  <line x1="52" y1="500" x2="60" y2="500" stroke="#7f8c8d" stroke-width="1.5" />
  <circle cx="228" cy="428" r="4" fill="#e74c3c" stroke="#e74c3c" stroke-width="1.5"/>
  <text x="234" y="431" font-size="9" text-anchor="start" fill="#333">VCC →5V</text>
  <line x1="220" y1="428" x2="228" y2="428" stroke="#e74c3c" stroke-width="1.5" />
  <circle cx="228" cy="452" r="4" fill="#2c3e50" stroke="#2c3e50" stroke-width="1.5"/>
  <text x="234" y="455" font-size="9" text-anchor="start" fill="#333">GND</text>
  <line x1="220" y1="452" x2="228" y2="452" stroke="#2c3e50" stroke-width="1.5" />
  <circle cx="228" cy="476" r="4" fill="#1565c0" stroke="#1565c0" stroke-width="1.5"/>
  <text x="234" y="479" font-size="9" text-anchor="start" fill="#333">A (−)</text>
  <line x1="220" y1="476" x2="228" y2="476" stroke="#1565c0" stroke-width="1.5" />
  <circle cx="228" cy="500" r="4" fill="#1565c0" stroke="#1565c0" stroke-width="1.5"/>
  <text x="234" y="503" font-size="9" text-anchor="start" fill="#333">B (+)</text>
  <line x1="220" y1="500" x2="228" y2="500" stroke="#1565c0" stroke-width="1.5" />
  <rect x="60" y="560" width="160" height="130" rx="6" fill="#ede7f6" stroke="#6a1b9a" stroke-width="1.5" />
  <text x="140" y="576" font-size="10" text-anchor="middle" fill="#6a1b9a" font-weight="bold" >XLR-5 (Female)</text>
  <text x="140" y="589" font-size="9" text-anchor="middle" fill="#7b1fa2"  >DMX512 Input</text>
  <circle cx="228" cy="602" r="4" fill="#2c3e50" stroke="#2c3e50" stroke-width="1.5"/>
  <text x="68" y="605" font-size="8" text-anchor="start" fill="#333">Pin 1 – Shield / GND</text>
  <line x1="220" y1="602" x2="228" y2="602" stroke="#2c3e50" stroke-width="1.5" />
  <circle cx="228" cy="620" r="4" fill="#1565c0" stroke="#1565c0" stroke-width="1.5"/>
  <text x="68" y="623" font-size="8" text-anchor="start" fill="#333">Pin 2 – Data− (A)</text>
  <line x1="220" y1="620" x2="228" y2="620" stroke="#1565c0" stroke-width="1.5" />
  <circle cx="228" cy="638" r="4" fill="#1565c0" stroke="#1565c0" stroke-width="1.5"/>
  <text x="68" y="641" font-size="8" text-anchor="start" fill="#333">Pin 3 – Data+ (B)</text>
  <line x1="220" y1="638" x2="228" y2="638" stroke="#1565c0" stroke-width="1.5" />
  <circle cx="228" cy="656" r="4" fill="#7f8c8d" stroke="#7f8c8d" stroke-width="1.5"/>
  <text x="68" y="659" font-size="8" text-anchor="start" fill="#333">Pin 4 – nc</text>
  <line x1="220" y1="656" x2="228" y2="656" stroke="#7f8c8d" stroke-width="1.5" />
  <circle cx="228" cy="674" r="4" fill="#7f8c8d" stroke="#7f8c8d" stroke-width="1.5"/>
  <text x="68" y="677" font-size="8" text-anchor="start" fill="#333">Pin 5 – nc</text>
  <line x1="220" y1="674" x2="228" y2="674" stroke="#7f8c8d" stroke-width="1.5" />
  <rect x="900" y="120" width="220" height="480" rx="6" fill="#fce4ec" stroke="#b71c1c" stroke-width="1.5" />
  <text x="1010" y="138" font-size="11" text-anchor="middle" fill="#b71c1c" font-weight="bold" >8-Channel Relay Module</text>
  <text x="1010" y="152" font-size="9" text-anchor="middle" fill="#c62828"  >(Active-LOW inputs)</text>
  <circle cx="940" cy="170" r="4" fill="#e74c3c" stroke="#e74c3c" stroke-width="1.5"/>
  <text x="940" y="183" font-size="8" text-anchor="middle" fill="#e74c3c"  >VCC</text>
  <circle cx="980" cy="170" r="4" fill="#2c3e50" stroke="#2c3e50" stroke-width="1.5"/>
  <text x="980" y="183" font-size="8" text-anchor="middle" fill="#2c3e50"  >GND</text>
  <circle cx="1020" cy="170" r="4" fill="#e74c3c" stroke="#e74c3c" stroke-width="1.5"/>
  <text x="1020" y="183" font-size="8" text-anchor="middle" fill="#e74c3c"  >JD-VCC</text>
  <circle cx="892" cy="210" r="4" fill="#c0392b" stroke="#c0392b" stroke-width="1.5"/>
  <text x="906" y="213" font-size="9" text-anchor="start" fill="#333">IN1 (D4)</text>
  <line x1="892" y1="210" x2="900" y2="210" stroke="#c0392b" stroke-width="1.5" />
  <rect x="1086" y="200" width="30" height="20" rx="2" fill="#ffccbc" stroke="#bf360c" stroke-width="1.5" />
  <text x="1101" y="214" font-size="7" text-anchor="middle" fill="#bf360c"  >NO/C</text>
  <circle cx="892" cy="256" r="4" fill="#c0392b" stroke="#c0392b" stroke-width="1.5"/>
  <text x="906" y="259" font-size="9" text-anchor="start" fill="#333">IN2 (D5)</text>
  <line x1="892" y1="256" x2="900" y2="256" stroke="#c0392b" stroke-width="1.5" />
  <rect x="1086" y="246" width="30" height="20" rx="2" fill="#ffccbc" stroke="#bf360c" stroke-width="1.5" />
  <text x="1101" y="260" font-size="7" text-anchor="middle" fill="#bf360c"  >NO/C</text>
  <circle cx="892" cy="302" r="4" fill="#c0392b" stroke="#c0392b" stroke-width="1.5"/>
  <text x="906" y="305" font-size="9" text-anchor="start" fill="#333">IN3 (D6)</text>
  <line x1="892" y1="302" x2="900" y2="302" stroke="#c0392b" stroke-width="1.5" />
  <rect x="1086" y="292" width="30" height="20" rx="2" fill="#ffccbc" stroke="#bf360c" stroke-width="1.5" />
  <text x="1101" y="306" font-size="7" text-anchor="middle" fill="#bf360c"  >NO/C</text>
  <circle cx="892" cy="348" r="4" fill="#c0392b" stroke="#c0392b" stroke-width="1.5"/>
  <text x="906" y="351" font-size="9" text-anchor="start" fill="#333">IN4 (D7)</text>
  <line x1="892" y1="348" x2="900" y2="348" stroke="#c0392b" stroke-width="1.5" />
  <rect x="1086" y="338" width="30" height="20" rx="2" fill="#ffccbc" stroke="#bf360c" stroke-width="1.5" />
  <text x="1101" y="352" font-size="7" text-anchor="middle" fill="#bf360c"  >NO/C</text>
  <circle cx="892" cy="394" r="4" fill="#c0392b" stroke="#c0392b" stroke-width="1.5"/>
  <text x="906" y="397" font-size="9" text-anchor="start" fill="#333">IN5 (D8)</text>
  <line x1="892" y1="394" x2="900" y2="394" stroke="#c0392b" stroke-width="1.5" />
  <rect x="1086" y="384" width="30" height="20" rx="2" fill="#ffccbc" stroke="#bf360c" stroke-width="1.5" />
  <text x="1101" y="398" font-size="7" text-anchor="middle" fill="#bf360c"  >NO/C</text>
  <circle cx="892" cy="440" r="4" fill="#c0392b" stroke="#c0392b" stroke-width="1.5"/>
  <text x="906" y="443" font-size="9" text-anchor="start" fill="#333">IN6 (D9)</text>
  <line x1="892" y1="440" x2="900" y2="440" stroke="#c0392b" stroke-width="1.5" />
  <rect x="1086" y="430" width="30" height="20" rx="2" fill="#ffccbc" stroke="#bf360c" stroke-width="1.5" />
  <text x="1101" y="444" font-size="7" text-anchor="middle" fill="#bf360c"  >NO/C</text>
  <circle cx="892" cy="486" r="4" fill="#c0392b" stroke="#c0392b" stroke-width="1.5"/>
  <text x="906" y="489" font-size="9" text-anchor="start" fill="#333">IN7 (D10)</text>
  <line x1="892" y1="486" x2="900" y2="486" stroke="#c0392b" stroke-width="1.5" />
  <rect x="1086" y="476" width="30" height="20" rx="2" fill="#ffccbc" stroke="#bf360c" stroke-width="1.5" />
  <text x="1101" y="490" font-size="7" text-anchor="middle" fill="#bf360c"  >NO/C</text>
  <circle cx="892" cy="532" r="4" fill="#c0392b" stroke="#c0392b" stroke-width="1.5"/>
  <text x="906" y="535" font-size="9" text-anchor="start" fill="#333">IN8 (D16)</text>
  <line x1="892" y1="532" x2="900" y2="532" stroke="#c0392b" stroke-width="1.5" />
  <rect x="1086" y="522" width="30" height="20" rx="2" fill="#ffccbc" stroke="#bf360c" stroke-width="1.5" />
  <text x="1101" y="536" font-size="7" text-anchor="middle" fill="#bf360c"  >NO/C</text>
  <rect x="100" y="720" width="60" height="50" rx="8" fill="#e3f2fd" stroke="#1565c0" stroke-width="1.5" />
  <text x="130" y="738" font-size="8" text-anchor="middle" fill="#0d47a1" font-weight="bold" >BTN_UP</text>
  <text x="130" y="750" font-size="9" text-anchor="middle" fill="#1565c0"  >A0</text>
  <text x="130" y="763" font-size="8" text-anchor="middle" fill="#2c3e50"  >→ GND</text>
  <circle cx="130" cy="770" r="4" fill="#f39c12" stroke="#f39c12" stroke-width="1.5"/>
  <rect x="180" y="720" width="60" height="50" rx="8" fill="#e3f2fd" stroke="#1565c0" stroke-width="1.5" />
  <text x="210" y="738" font-size="8" text-anchor="middle" fill="#0d47a1" font-weight="bold" >BTN_DOWN</text>
  <text x="210" y="750" font-size="9" text-anchor="middle" fill="#1565c0"  >A1</text>
  <text x="210" y="763" font-size="8" text-anchor="middle" fill="#2c3e50"  >→ GND</text>
  <circle cx="210" cy="770" r="4" fill="#f39c12" stroke="#f39c12" stroke-width="1.5"/>
  <rect x="260" y="720" width="60" height="50" rx="8" fill="#e3f2fd" stroke="#1565c0" stroke-width="1.5" />
  <text x="290" y="738" font-size="8" text-anchor="middle" fill="#0d47a1" font-weight="bold" >BTN_ENTER</text>
  <text x="290" y="750" font-size="9" text-anchor="middle" fill="#1565c0"  >A2</text>
  <text x="290" y="763" font-size="8" text-anchor="middle" fill="#2c3e50"  >→ GND</text>
  <circle cx="290" cy="770" r="4" fill="#f39c12" stroke="#f39c12" stroke-width="1.5"/>
  <rect x="340" y="720" width="60" height="50" rx="8" fill="#e3f2fd" stroke="#1565c0" stroke-width="1.5" />
  <text x="370" y="738" font-size="8" text-anchor="middle" fill="#0d47a1" font-weight="bold" >BTN_BACK</text>
  <text x="370" y="750" font-size="9" text-anchor="middle" fill="#1565c0"  >A3</text>
  <text x="370" y="763" font-size="8" text-anchor="middle" fill="#2c3e50"  >→ GND</text>
  <circle cx="370" cy="770" r="4" fill="#f39c12" stroke="#f39c12" stroke-width="1.5"/>
  <polyline points="552,282 522,282 522,250 190,250 190,220" fill="none" stroke="#8e44ad" stroke-width="2" />
  <polyline points="552,310 512,310 512,260 250,260 250,220" fill="none" stroke="#8e44ad" stroke-width="2" />
  <polyline points="552,226 502,226 502,270 70,270 70,220" fill="none" stroke="#2c3e50" stroke-width="2" />
  <polyline points="130,220 130,280 788,280 788,254 728,254" fill="none" stroke="#e74c3c" stroke-width="2" />
  <polyline points="228,602 260,602 260,452 228,452" fill="none" stroke="#2c3e50" stroke-width="2" />
  <polyline points="228,620 250,620 250,476 228,476" fill="none" stroke="#1565c0" stroke-width="2" />
  <polyline points="228,638 240,638 240,500 228,500" fill="none" stroke="#1565c0" stroke-width="2" />
  <polyline points="52,428 -30,428 -30,198 552,198" fill="none" stroke="#27ae60" stroke-width="2" />
  <polyline points="52,452 0,452 0,476 52,476" fill="none" stroke="#2c3e50" stroke-width="1.5" />
  <polyline points="0,464 472,464 472,254 552,254" fill="none" stroke="#2c3e50" stroke-width="1.5" />
  <polyline points="228,428 778,428 778,254 728,254" fill="none" stroke="#e74c3c" stroke-width="2" />
  <polyline points="552,338 550,338 550,210 892,210" fill="none" stroke="#c0392b" stroke-width="1.8" />
  <polyline points="552,366 548,366 548,256 892,256" fill="none" stroke="#c0392b" stroke-width="1.8" />
  <polyline points="552,394 546,394 546,302 892,302" fill="none" stroke="#c0392b" stroke-width="1.8" />
  <polyline points="552,422 544,422 544,348 892,348" fill="none" stroke="#c0392b" stroke-width="1.8" />
  <polyline points="552,450 542,450 542,394 892,394" fill="none" stroke="#c0392b" stroke-width="1.8" />
  <polyline points="552,478 540,478 540,440 892,440" fill="none" stroke="#c0392b" stroke-width="1.8" />
  <polyline points="552,506 538,506 538,486 892,486" fill="none" stroke="#c0392b" stroke-width="1.8" />
  <polyline points="552,534 536,534 536,532 892,532" fill="none" stroke="#c0392b" stroke-width="1.8" />
  <polyline points="728,366 748,366 748,790 130,790 130,770" fill="none" stroke="#f39c12" stroke-width="1.8" />
  <polyline points="728,338 758,338 758,790 210,790 210,770" fill="none" stroke="#f39c12" stroke-width="1.8" />
  <polyline points="728,310 768,310 768,790 290,790 290,770" fill="none" stroke="#f39c12" stroke-width="1.8" />
  <polyline points="728,282 778,282 778,790 370,790 370,770" fill="none" stroke="#f39c12" stroke-width="1.8" />
  <polyline points="940,170 940,140 798,140 798,254 728,254" fill="none" stroke="#e74c3c" stroke-width="2" />
  <polyline points="980,170 980,130 818,130 818,198 728,198" fill="none" stroke="#2c3e50" stroke-width="2" />
  <polyline points="1020,170 1020,106" fill="none" stroke="#e74c3c" stroke-width="1.5" stroke-dasharray="4 2"/>
  <text x="1020" y="102" font-size="8" text-anchor="middle" fill="#e74c3c"  >Ext. 5 V (coil supply)</text>
  <rect x="900" y="640" width="460" height="200" rx="4" fill="white" stroke="#999" stroke-width="1.5" />
  <text x="1130" y="656" font-size="11" text-anchor="middle" fill="#333" font-weight="bold" >Wire Colour Legend</text>
  <line x1="920" y1="684" x2="950" y2="684" stroke="#e74c3c" stroke-width="3" />
  <circle cx="920" cy="684" r="4" fill="#e74c3c" stroke="#e74c3c" stroke-width="1.5"/>
  <circle cx="950" cy="684" r="4" fill="#e74c3c" stroke="#e74c3c" stroke-width="1.5"/>
  <text x="958" y="688" font-size="9" text-anchor="start" fill="#333"  >5 V / VCC power</text>
  <line x1="1150" y1="684" x2="1180" y2="684" stroke="#2c3e50" stroke-width="3" />
  <circle cx="1150" cy="684" r="4" fill="#2c3e50" stroke="#2c3e50" stroke-width="1.5"/>
  <circle cx="1180" cy="684" r="4" fill="#2c3e50" stroke="#2c3e50" stroke-width="1.5"/>
  <text x="1188" y="688" font-size="9" text-anchor="start" fill="#333"  >GND / 0 V</text>
  <line x1="920" y1="720" x2="950" y2="720" stroke="#c0392b" stroke-width="3" />
  <circle cx="920" cy="720" r="4" fill="#c0392b" stroke="#c0392b" stroke-width="1.5"/>
  <circle cx="950" cy="720" r="4" fill="#c0392b" stroke="#c0392b" stroke-width="1.5"/>
  <text x="958" y="724" font-size="9" text-anchor="start" fill="#333"  >Relay control (D4–D10, D16)</text>
  <line x1="1150" y1="720" x2="1180" y2="720" stroke="#8e44ad" stroke-width="3" />
  <circle cx="1150" cy="720" r="4" fill="#8e44ad" stroke="#8e44ad" stroke-width="1.5"/>
  <circle cx="1180" cy="720" r="4" fill="#8e44ad" stroke="#8e44ad" stroke-width="1.5"/>
  <text x="1188" y="724" font-size="9" text-anchor="start" fill="#333"  >I²C bus (SDA / SCL)</text>
  <line x1="920" y1="756" x2="950" y2="756" stroke="#27ae60" stroke-width="3" />
  <circle cx="920" cy="756" r="4" fill="#27ae60" stroke="#27ae60" stroke-width="1.5"/>
  <circle cx="950" cy="756" r="4" fill="#27ae60" stroke="#27ae60" stroke-width="1.5"/>
  <text x="958" y="760" font-size="9" text-anchor="start" fill="#333"  >DMX data RX (D0)</text>
  <line x1="1150" y1="756" x2="1180" y2="756" stroke="#1565c0" stroke-width="3" />
  <circle cx="1150" cy="756" r="4" fill="#1565c0" stroke="#1565c0" stroke-width="1.5"/>
  <circle cx="1180" cy="756" r="4" fill="#1565c0" stroke="#1565c0" stroke-width="1.5"/>
  <text x="1188" y="760" font-size="9" text-anchor="start" fill="#333"  >RS-485 differential pair (A−, B+)</text>
  <line x1="920" y1="792" x2="950" y2="792" stroke="#f39c12" stroke-width="3" />
  <circle cx="920" cy="792" r="4" fill="#f39c12" stroke="#f39c12" stroke-width="1.5"/>
  <circle cx="950" cy="792" r="4" fill="#f39c12" stroke="#f39c12" stroke-width="1.5"/>
  <text x="958" y="796" font-size="9" text-anchor="start" fill="#333"  >Button inputs (A0–A3)</text>
  <line x1="1150" y1="792" x2="1180" y2="792" stroke="#e67e22" stroke-width="3" />
  <circle cx="1150" cy="792" r="4" fill="#e67e22" stroke="#e67e22" stroke-width="1.5"/>
  <circle cx="1180" cy="792" r="4" fill="#e67e22" stroke="#e67e22" stroke-width="1.5"/>
  <text x="1188" y="796" font-size="9" text-anchor="start" fill="#333"  >TX (D1) – unused / future</text>
  <rect x="60" y="840" width="820" height="135" rx="4" fill="#f0f4f8" stroke="#90a4ae" stroke-width="1.5" />
  <text x="470" y="854" font-size="10" text-anchor="middle" fill="#37474f" font-weight="bold" >Notes</text>
  <text x="70" y="868" font-size="9" text-anchor="start" fill="#37474f"  >• Relay module: RELAY_ACTIVE_LOW = true → IN pin LOW turns relay ON</text>
  <text x="70" y="885" font-size="9" text-anchor="start" fill="#37474f"  >• MAX485: tie RE and DE pins to GND for permanent receive mode</text>
  <text x="70" y="902" font-size="9" text-anchor="start" fill="#37474f"  >• Buttons use internal pull-ups; press = connect pin to GND</text>
  <text x="70" y="919" font-size="9" text-anchor="start" fill="#37474f"  >• I²C LCD default address 0x27 (change in code if 0x3F)</text>
  <text x="70" y="936" font-size="9" text-anchor="start" fill="#37474f"  >• Recommended wire gauge: 22 AWG signal, 18 AWG power / relay load</text>
  <text x="70" y="953" font-size="9" text-anchor="start" fill="#37474f"  >• JD-VCC: power relay coils from separate 5 V supply to protect the MCU</text>
  <text x="70" y="970" font-size="9" text-anchor="start" fill="#37474f"  >• DMX cable: use shielded twisted-pair; shield connects to XLR pin 1</text>
  <rect x="1180" y="120" width="200" height="480" rx="4" fill="white" stroke="#90a4ae" stroke-width="1.5" />
  <text x="1280" y="136" font-size="10" text-anchor="middle" fill="#333" font-weight="bold" >Quick Pin Reference</text>
  <rect x="1182" y="136" width="196" height="22" rx="0" fill="#f9f9f9" stroke="none" stroke-width="1.5" />
  <text x="1188" y="151" font-size="8" text-anchor="start" fill="#c0392b"  >D0 (RX)</text>
  <text x="1376" y="151" font-size="8" text-anchor="end" fill="#444"  >DMX in via MAX485</text>
  <rect x="1182" y="160" width="196" height="22" rx="0" fill="white" stroke="none" stroke-width="1.5" />
  <text x="1188" y="175" font-size="8" text-anchor="start" fill="#c0392b"  >D1 (TX)</text>
  <text x="1376" y="175" font-size="8" text-anchor="end" fill="#444"  >Unused</text>
  <rect x="1182" y="184" width="196" height="22" rx="0" fill="#f9f9f9" stroke="none" stroke-width="1.5" />
  <text x="1188" y="199" font-size="8" text-anchor="start" fill="#c0392b"  >D2 (SDA)</text>
  <text x="1376" y="199" font-size="8" text-anchor="end" fill="#444"  >I²C LCD data</text>
  <rect x="1182" y="208" width="196" height="22" rx="0" fill="white" stroke="none" stroke-width="1.5" />
  <text x="1188" y="223" font-size="8" text-anchor="start" fill="#c0392b"  >D3 (SCL)</text>
  <text x="1376" y="223" font-size="8" text-anchor="end" fill="#444"  >I²C LCD clock</text>
  <rect x="1182" y="232" width="196" height="22" rx="0" fill="#f9f9f9" stroke="none" stroke-width="1.5" />
  <text x="1188" y="247" font-size="8" text-anchor="start" fill="#c0392b"  >D4</text>
  <text x="1376" y="247" font-size="8" text-anchor="end" fill="#444"  >Relay 1</text>
  <rect x="1182" y="256" width="196" height="22" rx="0" fill="white" stroke="none" stroke-width="1.5" />
  <text x="1188" y="271" font-size="8" text-anchor="start" fill="#c0392b"  >D5</text>
  <text x="1376" y="271" font-size="8" text-anchor="end" fill="#444"  >Relay 2</text>
  <rect x="1182" y="280" width="196" height="22" rx="0" fill="#f9f9f9" stroke="none" stroke-width="1.5" />
  <text x="1188" y="295" font-size="8" text-anchor="start" fill="#c0392b"  >D6</text>
  <text x="1376" y="295" font-size="8" text-anchor="end" fill="#444"  >Relay 3</text>
  <rect x="1182" y="304" width="196" height="22" rx="0" fill="white" stroke="none" stroke-width="1.5" />
  <text x="1188" y="319" font-size="8" text-anchor="start" fill="#c0392b"  >D7</text>
  <text x="1376" y="319" font-size="8" text-anchor="end" fill="#444"  >Relay 4</text>
  <rect x="1182" y="328" width="196" height="22" rx="0" fill="#f9f9f9" stroke="none" stroke-width="1.5" />
  <text x="1188" y="343" font-size="8" text-anchor="start" fill="#c0392b"  >D8</text>
  <text x="1376" y="343" font-size="8" text-anchor="end" fill="#444"  >Relay 5</text>
  <rect x="1182" y="352" width="196" height="22" rx="0" fill="white" stroke="none" stroke-width="1.5" />
  <text x="1188" y="367" font-size="8" text-anchor="start" fill="#c0392b"  >D9</text>
  <text x="1376" y="367" font-size="8" text-anchor="end" fill="#444"  >Relay 6</text>
  <rect x="1182" y="376" width="196" height="22" rx="0" fill="#f9f9f9" stroke="none" stroke-width="1.5" />
  <text x="1188" y="391" font-size="8" text-anchor="start" fill="#c0392b"  >D10</text>
  <text x="1376" y="391" font-size="8" text-anchor="end" fill="#444"  >Relay 7</text>
  <rect x="1182" y="400" width="196" height="22" rx="0" fill="white" stroke="none" stroke-width="1.5" />
  <text x="1188" y="415" font-size="8" text-anchor="start" fill="#c0392b"  >D16 (MOSI)</text>
  <text x="1376" y="415" font-size="8" text-anchor="end" fill="#444"  >Relay 8</text>
  <rect x="1182" y="424" width="196" height="22" rx="0" fill="#f9f9f9" stroke="none" stroke-width="1.5" />
  <text x="1188" y="439" font-size="8" text-anchor="start" fill="#c0392b"  >A0</text>
  <text x="1376" y="439" font-size="8" text-anchor="end" fill="#444"  >BTN_UP</text>
  <rect x="1182" y="448" width="196" height="22" rx="0" fill="white" stroke="none" stroke-width="1.5" />
  <text x="1188" y="463" font-size="8" text-anchor="start" fill="#c0392b"  >A1</text>
  <text x="1376" y="463" font-size="8" text-anchor="end" fill="#444"  >BTN_DOWN</text>
  <rect x="1182" y="472" width="196" height="22" rx="0" fill="#f9f9f9" stroke="none" stroke-width="1.5" />
  <text x="1188" y="487" font-size="8" text-anchor="start" fill="#c0392b"  >A2</text>
  <text x="1376" y="487" font-size="8" text-anchor="end" fill="#444"  >BTN_ENTER</text>
  <rect x="1182" y="496" width="196" height="22" rx="0" fill="white" stroke="none" stroke-width="1.5" />
  <text x="1188" y="511" font-size="8" text-anchor="start" fill="#c0392b"  >A3</text>
  <text x="1376" y="511" font-size="8" text-anchor="end" fill="#444"  >BTN_BACK</text>
  <rect x="1182" y="520" width="196" height="22" rx="0" fill="#f9f9f9" stroke="none" stroke-width="1.5" />
  <text x="1188" y="535" font-size="8" text-anchor="start" fill="#e74c3c"  >VCC</text>
  <text x="1376" y="535" font-size="8" text-anchor="end" fill="#444"  >5 V output</text>
  <rect x="1182" y="544" width="196" height="22" rx="0" fill="white" stroke="none" stroke-width="1.5" />
  <text x="1188" y="559" font-size="8" text-anchor="start" fill="#333"  >GND</text>
  <text x="1376" y="559" font-size="8" text-anchor="end" fill="#444"  >Ground</text>
</svg>